# Blender v3.3.19 OBJ File: ''
# www.blender.org
mtllib steen1.mtl
o Cube_Cube.001
v -0.085652 0.274129 -2.775498
v -0.248548 0.005780 -1.968779
v 0.273425 0.059554 -1.824393
v 0.360449 0.176249 -1.812083
v 0.358096 0.690874 -1.521915
v 0.415430 0.639045 -2.346528
v -0.023953 0.021154 -2.770217
v 0.074654 0.718077 -2.699420
v 0.284689 0.062407 -2.710475
v 0.218792 0.787100 -1.548849
v -0.506553 0.318342 -2.488015
v -0.472247 0.665236 -1.673790
v -0.109116 0.700967 -2.686659
v -0.282043 0.765029 -1.979536
v 0.234665 0.105998 -2.002204
v -0.285805 0.810361 -1.528635
v -0.169101 0.835669 -2.513037
v -0.493536 0.577915 -2.284219
v 0.445422 0.528360 -2.400411
v 0.289311 0.534836 -1.387495
v -0.232120 0.455276 -1.254864
v -0.515951 0.321878 -1.389308
v -0.030185 0.030970 -1.415305
v -0.512478 0.245326 -1.837537
v -0.282169 0.384282 -2.645436
vt 0.097722 0.650743
vt 0.113851 0.554277
vt 0.171079 0.723641
vt 0.294492 0.180162
vt 0.312783 0.439880
vt 0.152656 0.234206
vt 0.283024 0.737753
vt 0.283024 0.861422
vt 0.705444 0.359741
vt 0.627430 0.525086
vt 0.653170 0.357542
vt 0.912835 0.468212
vt 0.848777 0.525086
vt 0.591877 0.548440
vt 0.572932 0.879582
vt 0.527670 0.549159
vt 0.840340 0.118192
vt 0.882738 0.138449
vt 0.394508 0.515440
vt 0.312783 0.427663
vt 0.406203 0.316149
vt 0.332179 0.515440
vt 0.312783 0.695683
vt 0.682785 0.644736
vt 0.851132 0.538895
vt 0.851132 0.771858
vt 0.000000 0.813461
vt 0.063812 0.821890
vt 0.020874 0.556370
vt 0.665797 0.286164
vt 0.640366 0.002904
vt 0.087729 0.011756
vt 0.000000 0.174395
vt 0.024280 0.245256
vt 0.532955 0.444047
vt 0.395284 0.177350
vt 0.484103 0.046904
vt 0.484743 0.238793
vt 0.319975 0.910369
vt 0.627430 0.346751
vt 0.098530 0.900487
vt 0.318183 0.028092
vt 0.346067 0.986393
vt 0.414561 1.000000
vt 0.319652 0.475999
vt 0.591877 0.905926
vt 0.884133 0.000000
vt 0.088089 0.554277
vt 0.000231 0.529083
vt 0.627430 0.525086
vt 0.627430 0.211243
vt 0.564102 0.000000
vt 0.312783 0.000000
vn -0.2350 0.0069 -0.9720
vn -0.5808 -0.1373 -0.8023
vn -0.6094 0.1381 -0.7808
vn -0.6594 -0.7505 0.0438
vn -0.6220 -0.7679 -0.1532
vn -0.6197 -0.7848 0.0049
vn -0.5881 0.5175 -0.6215
vn -0.6795 0.4169 -0.6037
vn 0.9007 -0.3235 0.2900
vn 0.7032 -0.4937 0.5116
vn 0.6839 -0.5594 0.4684
vn 0.9724 -0.0998 0.2107
vn 0.8686 -0.2972 0.3965
vn 0.5699 0.8216 -0.0120
vn 0.3642 0.9267 -0.0922
vn 0.3162 0.9482 -0.0320
vn 0.9954 -0.0943 0.0193
vn 0.9700 0.2373 0.0525
vn 0.1231 0.5803 0.8050
vn 0.1128 0.5576 0.8224
vn 0.0894 0.5955 0.7984
vn 0.0418 0.9941 -0.0996
vn -0.0809 0.9958 0.0430
vn 0.2722 -0.2243 0.9357
vn 0.0268 0.1594 -0.9868
vn -0.4722 0.2861 -0.8338
vn 0.2050 0.0586 -0.9770
vn 0.2727 -0.9615 -0.0330
vn 0.1433 -0.9871 0.0709
vn 0.3863 -0.9185 0.0838
vn 0.1010 -0.9949 0.0054
vn 0.1640 -0.9863 -0.0189
vn 0.1389 -0.9808 -0.1370
vn 0.1867 0.0250 -0.9821
vn 0.1042 0.6171 0.7799
vn -0.5938 0.8011 -0.0759
vn -0.6179 0.7845 -0.0529
vn -0.5720 0.8153 -0.0898
vn 0.2327 0.9708 -0.0580
vn -0.5471 0.4577 0.7009
vn -0.6672 0.4774 0.5718
vn -0.6219 0.4714 0.6254
vn -0.7402 0.4824 0.4685
vn -0.7197 0.4057 -0.5634
vn -0.6357 0.7713 -0.0324
vn -0.5689 0.8178 -0.0870
vn 0.9528 -0.3006 -0.0423
vn -0.1152 0.7652 -0.6334
vn 0.2418 0.5699 0.7853
vn 0.6852 0.2781 -0.6732
vn 0.6880 0.4598 -0.5615
vn 0.6899 0.3463 -0.6357
vn 0.6794 0.2294 -0.6969
vn 0.3490 0.9282 -0.1292
vn 0.7771 -0.5466 -0.3122
vn 0.1510 -0.9868 0.0582
vn -0.2120 -0.4323 0.8765
vn -0.9978 0.0657 -0.0017
vn -0.9991 0.0406 -0.0122
vn -0.9954 0.0956 0.0024
vn -0.9986 0.0526 -0.0032
vn -0.4906 -0.8400 0.2318
vn -0.5415 -0.8175 0.1961
vn -0.5901 -0.7869 -0.1805
vn -0.5499 -0.1064 -0.8284
vn -0.9903 0.1383 0.0148
usemtl None
s 1
f 1/1/1 7/2/2 25/3/3
f 24/4/4 11/5/5 2/6/6
f 25/3/3 11/7/7 18/8/8
f 4/9/9 23/10/10 3/11/11
f 5/12/12 20/13/13 4/9/9
f 5/14/14 6/15/15 10/16/16
f 5/12/12 4/9/9 19/17/17
f 6/18/18 5/12/12 19/17/17
f 20/19/19 10/20/20 16/21/21
f 16/22/22 10/16/16 14/23/23
f 21/24/24 23/25/24 20/26/24
f 8/27/25 1/1/1 13/28/26
f 9/29/27 1/1/1 8/27/25
f 23/10/10 4/9/9 20/13/13
f 15/30/28 9/31/29 4/9/30
f 23/32/31 2/6/32 3/33/33
f 2/6/32 15/34/28 3/33/33
f 7/2/34 1/1/1 9/29/27
f 16/21/21 21/35/35 20/19/19
f 14/36/36 18/37/37 12/38/38
f 17/39/39 14/23/23 10/16/16
f 21/35/40 16/21/41 22/40/42
f 16/21/41 12/38/43 22/40/42
f 17/41/44 13/28/26 18/8/8
f 13/28/26 1/1/1 25/3/3
f 14/36/36 17/42/45 18/37/37
f 12/38/38 16/21/46 14/36/36
f 9/31/47 19/17/17 4/9/9
f 13/43/48 17/39/48 8/44/48
f 20/19/19 5/45/49 10/20/20
f 17/39/39 10/16/16 6/15/15
f 8/44/50 6/15/51 19/46/52
f 8/47/50 19/17/52 9/31/53
f 17/39/39 6/15/15 8/44/54
f 4/9/55 3/11/55 15/30/55
f 2/6/32 7/48/56 15/34/28
f 15/34/28 7/48/56 9/49/29
f 23/25/57 21/24/57 22/50/57
f 18/37/58 24/51/59 22/40/60
f 18/37/58 11/52/61 24/51/59
f 13/28/26 25/3/3 18/8/8
f 23/32/62 22/53/63 2/6/6
f 7/48/64 2/6/6 11/5/5
f 22/53/63 24/4/4 2/6/6
f 7/2/2 11/7/65 25/3/3
f 18/37/58 22/40/60 12/38/66
